<svg width="16" height="16" viewBox="0 0 16 16" fill="none" xmlns="http://www.w3.org/2000/svg">
<mask id="mask0_2404_461" style="mask-type:luminance" maskUnits="userSpaceOnUse" x="1" y="2" width="14" height="14">
<path fill-rule="evenodd" clip-rule="evenodd" d="M1.33331 1.99993H14.9817V15.0006H1.33331V1.99993Z" fill="white"/>
</mask>
<g mask="url(#mask0_2404_461)">
<path fill-rule="evenodd" clip-rule="evenodd" d="M2.54916 8.082C3.48383 10.99 7.1765 13.3413 8.15783 13.9233C9.1425 13.3353 12.8618 10.958 13.7665 8.08467C14.3605 6.22734 13.8092 3.87467 11.6185 3.16867C10.5572 2.828 9.31916 3.03534 8.4645 3.69667C8.28583 3.834 8.03783 3.83667 7.85783 3.70067C6.9525 3.02 5.76983 2.82067 4.69183 3.16867C2.5045 3.874 1.95516 6.22667 2.54916 8.082ZM8.15849 15.0007C8.07583 15.0007 7.99383 14.9807 7.91916 14.94C7.71049 14.826 2.79516 12.1167 1.59716 8.38734C1.5965 8.38734 1.5965 8.38667 1.5965 8.38667C0.844495 6.03867 1.68183 3.088 4.38516 2.21667C5.6545 1.806 7.03783 1.98667 8.1565 2.69267C9.2405 2.00734 10.6805 1.818 11.9245 2.21667C14.6305 3.08934 15.4705 6.03934 14.7192 8.38667C13.5598 12.0733 8.60849 14.8233 8.39849 14.9387C8.32383 14.98 8.24116 15.0007 8.15849 15.0007Z" fill="#909090"/>
</g>
<path fill-rule="evenodd" clip-rule="evenodd" d="M12.1025 7.08327C11.8445 7.08327 11.6258 6.88527 11.6045 6.62394C11.5605 6.07594 11.1938 5.61327 10.6718 5.4446C10.4085 5.35927 10.2645 5.07727 10.3491 4.81527C10.4351 4.5526 10.7145 4.40994 10.9785 4.4926C11.8871 4.7866 12.5238 5.59127 12.6018 6.5426C12.6238 6.81794 12.4191 7.05927 12.1438 7.08127C12.1298 7.0826 12.1165 7.08327 12.1025 7.08327Z" fill="#909090"/>
</svg>
